<svg preserveAspectRatio="none" xmlns="http://www.w3.org/2000/svg" width="1920" height="577.37" viewBox="0 0 1920 577.37">
  <defs>
    <style>
      .cls-blob-content-1, .cls-blob-content-2 {
        fill: var(--background-shade);
      }

      .cls-blob-content-1 {
        fill-rule: evenodd;
      }
    </style>
  </defs>
  <path id="Color_Fill_8" data-name="Color Fill 8" class="cls-blob-content-1" d="M14,3347c354.074-94,583.787,9,864,41,324.491,37.05,575.811-188.16,810.241-136.08,95.75,21.27,179.61,43.84,245.76,61.08,0.26-107.68.14-278.78,0-374-162.83-60.95-382.12-113.72-647,9-360,166.78-450-60.31-688-117s-347,85.19-480,163c-48.143,28.17-81.723,27.58-105,15C14.018,3186.16,14.432,3188.34,14,3347Z" transform="translate(-14 -2817.94)"/>
  <path class="cls-blob-content-1" d="M1036.74,2829.91c41.77,16.02,66.98,51.57,56.31,79.39s-53.19,37.4-94.955,21.38-66.977-51.56-56.3-79.39S994.974,2813.89,1036.74,2829.91Z" transform="translate(-14 -2817.94)"/>
  <ellipse class="cls-blob-content-2" cx="1179.5" cy="65.06" rx="29.5" ry="26"/>
  <path class="cls-blob-content-1" d="M1594.1,3293.23c43.43-4.18,80.83,15.15,83.53,43.19s-30.31,54.16-73.74,58.34-80.82-15.14-83.53-43.18S1550.67,3297.42,1594.1,3293.23Z" transform="translate(-14 -2817.94)"/>
  <path class="cls-blob-content-1" d="M68.512,2854.9c42.957-34.27,93-42.98,111.769-19.45s-0.836,70.38-43.793,104.65-93,42.98-111.769,19.45S25.554,2889.16,68.512,2854.9Z" transform="translate(-14 -2817.94)"/>
  <path class="cls-blob-content-1" d="M1316.18,2818.22c10.1,1.53,15.97,11.4,13.1,22.05s-13.37,18.03-23.47,16.51-15.96-11.4-13.1-22.05S1306.08,2816.69,1316.18,2818.22Z" transform="translate(-14 -2817.94)"/>
</svg>
